<svg width="168" height="24" viewBox="0 0 168 24" fill="none" xmlns="http://www.w3.org/2000/svg">
<g clip-path="url(#clip0_2017_1016)">
<path d="M23.9372 9.20529C23.7792 8.71931 23.3482 8.37525 22.8402 8.32929L15.9121 7.70032L13.1741 1.29005C12.972 0.819097 12.512 0.515137 12 0.515137C11.4881 0.515137 11.0279 0.819097 10.827 1.29005L8.08902 7.70032L1.15982 8.32929C0.651881 8.37617 0.221759 8.72023 0.0628208 9.20529C-0.0952019 9.69125 0.0507355 10.2243 0.434897 10.5612L5.67198 15.1534L4.12783 21.9544C4.01485 22.4545 4.20895 22.9716 4.62387 23.2715C4.8469 23.4335 5.10893 23.5145 5.37187 23.5145C5.59783 23.5145 5.82396 23.4544 6.02593 23.3336L12 19.7615L17.973 23.3336C18.4112 23.5954 18.9622 23.5714 19.3762 23.2715C19.7911 22.9716 19.9852 22.4545 19.8722 21.9544L18.3281 15.1534L23.5652 10.5612C23.9491 10.2243 24.0953 9.69235 23.9372 9.20529Z" fill="#F8D254"/>
</g>
<g clip-path="url(#clip1_2017_1016)">
<path d="M59.9372 9.20529C59.7792 8.71931 59.3482 8.37525 58.8402 8.32929L51.9121 7.70032L49.1741 1.29005C48.972 0.819097 48.512 0.515137 48 0.515137C47.4881 0.515137 47.0279 0.819097 46.827 1.29005L44.089 7.70032L37.1598 8.32929C36.6519 8.37617 36.2218 8.72023 36.0628 9.20529C35.9048 9.69125 36.0507 10.2243 36.4349 10.5612L41.672 15.1534L40.1278 21.9544C40.0149 22.4545 40.2089 22.9716 40.6239 23.2715C40.8469 23.4335 41.1089 23.5145 41.3719 23.5145C41.5978 23.5145 41.824 23.4544 42.0259 23.3336L48 19.7615L53.973 23.3336C54.4112 23.5954 54.9622 23.5714 55.3762 23.2715C55.7911 22.9716 55.9852 22.4545 55.8722 21.9544L54.3281 15.1534L59.5652 10.5612C59.9491 10.2243 60.0953 9.69235 59.9372 9.20529Z" fill="#F8D254"/>
</g>
<g clip-path="url(#clip2_2017_1016)">
<path d="M95.9372 9.20529C95.7792 8.71931 95.3482 8.37525 94.8402 8.32929L87.9121 7.70032L85.1741 1.29005C84.972 0.819097 84.512 0.515137 84 0.515137C83.4881 0.515137 83.0279 0.819097 82.827 1.29005L80.089 7.70032L73.1598 8.32929C72.6519 8.37617 72.2218 8.72023 72.0628 9.20529C71.9048 9.69125 72.0507 10.2243 72.4349 10.5612L77.672 15.1534L76.1278 21.9544C76.0149 22.4545 76.2089 22.9716 76.6239 23.2715C76.8469 23.4335 77.1089 23.5145 77.3719 23.5145C77.5978 23.5145 77.824 23.4544 78.0259 23.3336L84 19.7615L89.973 23.3336C90.4112 23.5954 90.9622 23.5714 91.3762 23.2715C91.7911 22.9716 91.9852 22.4545 91.8722 21.9544L90.3281 15.1534L95.5652 10.5612C95.9491 10.2243 96.0953 9.69235 95.9372 9.20529Z" fill="#F8D254"/>
</g>
<g clip-path="url(#clip3_2017_1016)">
<path d="M131.937 9.20529C131.779 8.71931 131.348 8.37525 130.84 8.32929L123.912 7.70032L121.174 1.29005C120.972 0.819097 120.512 0.515137 120 0.515137C119.488 0.515137 119.028 0.819097 118.827 1.29005L116.089 7.70032L109.16 8.32929C108.652 8.37617 108.222 8.72023 108.063 9.20529C107.905 9.69125 108.051 10.2243 108.435 10.5612L113.672 15.1534L112.128 21.9544C112.015 22.4545 112.209 22.9716 112.624 23.2715C112.847 23.4335 113.109 23.5145 113.372 23.5145C113.598 23.5145 113.824 23.4544 114.026 23.3336L120 19.7615L125.973 23.3336C126.411 23.5954 126.962 23.5714 127.376 23.2715C127.791 22.9716 127.985 22.4545 127.872 21.9544L126.328 15.1534L131.565 10.5612C131.949 10.2243 132.095 9.69235 131.937 9.20529Z" fill="#F8D254"/>
</g>
<g clip-path="url(#clip4_2017_1016)">
<path d="M167.937 9.20529C167.779 8.71931 167.348 8.37525 166.84 8.32929L159.912 7.70032L157.174 1.29005C156.972 0.819097 156.512 0.515137 156 0.515137C155.488 0.515137 155.028 0.819097 154.827 1.29005L152.089 7.70032L145.16 8.32929C144.652 8.37617 144.222 8.72023 144.063 9.20529C143.905 9.69125 144.051 10.2243 144.435 10.5612L149.672 15.1534L148.128 21.9544C148.015 22.4545 148.209 22.9716 148.624 23.2715C148.847 23.4335 149.109 23.5145 149.372 23.5145C149.598 23.5145 149.824 23.4544 150.026 23.3336L156 19.7615L161.973 23.3336C162.411 23.5954 162.962 23.5714 163.376 23.2715C163.791 22.9716 163.985 22.4545 163.872 21.9544L162.328 15.1534L167.565 10.5612C167.949 10.2243 168.095 9.69235 167.937 9.20529Z" fill="#ABABAB"/>
</g>
<defs>
<clipPath id="clip0_2017_1016">
<rect width="24" height="24" fill="white"/>
</clipPath>
<clipPath id="clip1_2017_1016">
<rect width="24" height="24" fill="white" transform="translate(36)"/>
</clipPath>
<clipPath id="clip2_2017_1016">
<rect width="24" height="24" fill="white" transform="translate(72)"/>
</clipPath>
<clipPath id="clip3_2017_1016">
<rect width="24" height="24" fill="white" transform="translate(108)"/>
</clipPath>
<clipPath id="clip4_2017_1016">
<rect width="24" height="24" fill="white" transform="translate(144)"/>
</clipPath>
</defs>
</svg>
