<svg width="37" height="40" viewBox="0 0 37 40" fill="none" xmlns="http://www.w3.org/2000/svg">
<path d="M8.6447 24.1181C10.0664 22.2229 12.0725 20.7857 14.3909 20.0015C12.0774 19.2209 10.0751 17.7886 8.6556 15.8988C7.23611 14.0091 6.46837 11.7536 6.45654 9.43852C6.45654 9.42643 6.45404 9.4167 6.45404 9.40797L6.45654 0.000976562H0V40H6.45654L6.45404 30.593C6.45404 30.5846 6.45654 30.5748 6.45654 30.5624C6.46954 28.2541 7.23322 26.005 8.6447 24.1181Z" fill="#24AB70"/>
<path d="M18.4462 19.2849C21.2209 19.2655 23.8761 18.2188 25.8388 16.3709C27.8014 14.523 28.914 12.0221 28.9364 9.40801V0.00369259L22.4709 6.09121V9.40701C22.4869 9.91436 22.3947 10.4196 22.1997 10.8927C22.0047 11.3658 21.7109 11.7973 21.3356 12.1615C20.9604 12.5257 20.5113 12.8152 20.0152 13.013C19.519 13.2107 18.9857 13.3126 18.4469 13.3126C17.9082 13.3126 17.3749 13.2107 16.8787 13.013C16.3825 12.8152 15.9335 12.5257 15.5583 12.1615C15.183 11.7973 14.8892 11.3658 14.6942 10.8927C14.4992 10.4196 14.4069 9.91436 14.423 9.40701V6.08148L7.97461 0V9.40701C7.99046 12.02 9.0984 14.522 11.0584 16.3708C13.0184 18.2197 15.6727 19.2667 18.4462 19.2849Z" fill="black"/>
<path d="M18.4462 20.7161C15.6728 20.7342 13.0186 21.781 11.0585 23.6297C9.0985 25.4783 7.99038 27.9801 7.97424 30.593V40L14.4226 33.9185V30.593C14.4066 30.0856 14.4988 29.5804 14.6938 29.1073C14.8888 28.6341 15.1826 28.2027 15.5579 27.8385C15.9331 27.4743 16.3822 27.1847 16.8783 26.987C17.3745 26.7893 17.9078 26.6874 18.4466 26.6874C18.9853 26.6874 19.5186 26.7893 20.0148 26.987C20.511 27.1847 20.96 27.4743 21.3352 27.8385C21.7105 28.2027 22.0043 28.6341 22.1993 29.1073C22.3943 29.5804 22.4866 30.0856 22.4705 30.593V33.9088L28.936 39.9967V30.593C28.9136 27.9789 27.801 25.478 25.8384 23.6301C23.8758 21.7822 21.2209 20.7356 18.4462 20.7161Z" fill="black"/>
<path d="M36.9081 0.00366211H30.4554V9.40698C30.4476 11.7271 29.6814 13.9887 28.261 15.8841C26.8407 17.7795 24.8352 19.2168 22.5172 20.0005C24.8352 20.7838 26.8409 22.2208 28.2613 24.1161C29.6816 26.0114 30.4477 28.2729 30.4554 30.593V39.9966H36.9081V0.00366211Z" fill="#24AB70"/>
</svg>
