<svg width="186" height="40" viewBox="0 0 186 40" fill="none" xmlns="http://www.w3.org/2000/svg">
<path d="M177.264 28.0625H173.359L173.383 25.5312H177.264C178.317 25.5312 179.201 25.3125 179.914 24.875C180.627 24.4297 181.166 23.793 181.531 22.9648C181.896 22.1289 182.078 21.1289 182.078 19.9648V19.0859C182.078 18.1875 181.974 17.3945 181.767 16.707C181.56 16.0195 181.253 15.4414 180.847 14.9727C180.449 14.5039 179.955 14.1484 179.366 13.9062C178.778 13.6641 178.102 13.543 177.339 13.543H173.284V11H177.339C178.55 11 179.653 11.1914 180.648 11.5742C181.651 11.957 182.518 12.5078 183.247 13.2266C183.985 13.9375 184.549 14.7891 184.939 15.7812C185.337 16.7734 185.536 17.8828 185.536 19.1094V19.9648C185.536 21.1836 185.337 22.293 184.939 23.293C184.549 24.2852 183.985 25.1367 183.247 25.8477C182.518 26.5586 181.647 27.1055 180.635 27.4883C179.624 27.8711 178.5 28.0625 177.264 28.0625ZM175.274 11V28.0625H171.853V11H175.274Z" fill="#24AB70"/>
<path d="M169.565 25.5312V28.0625H160.46V25.5312H169.565ZM161.492 11V28.0625H158.071V11H161.492Z" fill="#24AB70"/>
<path d="M154.377 11V28.0625H150.956V11H154.377Z" fill="#24AB70"/>
<path d="M144.065 11H147.486V22.332C147.486 23.6367 147.187 24.7344 146.59 25.625C145.993 26.5078 145.181 27.1758 144.152 27.6289C143.124 28.0742 141.955 28.2969 140.645 28.2969C139.318 28.2969 138.136 28.0742 137.1 27.6289C136.063 27.1758 135.25 26.5078 134.662 25.625C134.073 24.7344 133.779 23.6367 133.779 22.332V11H137.199V22.332C137.199 23.1289 137.34 23.7812 137.622 24.2891C137.904 24.7891 138.302 25.1602 138.816 25.4023C139.33 25.6445 139.94 25.7656 140.645 25.7656C141.358 25.7656 141.967 25.6445 142.473 25.4023C142.987 25.1602 143.381 24.7891 143.655 24.2891C143.929 23.7812 144.065 23.1289 144.065 22.332V11Z" fill="#24AB70"/>
<path d="M124.76 20.457H120.133L120.108 18.1836H124.076C124.756 18.1836 125.324 18.0938 125.78 17.9141C126.237 17.7344 126.581 17.4727 126.813 17.1289C127.053 16.7852 127.174 16.3672 127.174 15.875C127.174 15.3281 127.062 14.8828 126.838 14.5391C126.622 14.1953 126.282 13.9453 125.818 13.7891C125.353 13.625 124.765 13.543 124.051 13.543H121.24V28.0625H117.82V11H124.051C125.08 11 125.996 11.0938 126.8 11.2812C127.613 11.4609 128.301 11.7422 128.865 12.125C129.429 12.5078 129.856 12.9883 130.146 13.5664C130.445 14.1445 130.594 14.832 130.594 15.6289C130.594 16.332 130.42 16.9805 130.072 17.5742C129.732 18.1602 129.205 18.6367 128.492 19.0039C127.787 19.3711 126.892 19.582 125.805 19.6367L124.76 20.457ZM124.611 28.0625H119.126L120.556 25.5312H124.611C125.291 25.5312 125.851 25.4258 126.29 25.2148C126.738 25.0039 127.07 24.7148 127.286 24.3477C127.509 23.9727 127.621 23.543 127.621 23.0586C127.621 22.5273 127.522 22.0664 127.323 21.6758C127.132 21.2852 126.825 20.9844 126.402 20.7734C125.988 20.5625 125.44 20.457 124.76 20.457H121.203L121.228 18.1836H125.756L126.539 19.0625C127.584 19.0703 128.434 19.2656 129.089 19.6484C129.753 20.0312 130.242 20.5234 130.557 21.125C130.872 21.7266 131.03 22.375 131.03 23.0703C131.03 24.1641 130.777 25.082 130.271 25.8242C129.773 26.5664 129.044 27.125 128.082 27.5C127.128 27.875 125.971 28.0625 124.611 28.0625Z" fill="#24AB70"/>
<path d="M21.2451 22.332C21.2451 23.1288 21.3861 23.7813 21.668 24.2891C21.9499 24.789 22.3482 25.1602 22.8623 25.4023C23.3763 25.6445 23.9858 25.7656 24.6904 25.7656C25.4036 25.7656 26.0137 25.6445 26.5195 25.4023C27.0336 25.1602 27.4275 24.789 27.7012 24.2891C27.9748 23.7813 28.1113 23.1289 28.1113 22.332V11H31.5322V22.332C31.5322 23.6367 31.2338 24.7344 30.6367 25.625C30.0397 26.5078 29.2265 27.1758 28.1982 27.6289C27.17 28.0741 26.0005 28.2969 24.6904 28.2969C23.3638 28.2968 22.182 28.0742 21.1455 27.6289C20.1091 27.1758 19.2967 26.5077 18.708 25.625C18.1192 24.7344 17.8242 23.6367 17.8242 22.332V11H21.2451V22.332ZM3.4209 18.043H11.1328V11H14.5537V28.0625H11.1328V20.5742H3.4209V28.0625H0V11H3.4209V18.043ZM44.1826 23.8438L49.1201 11H53.5859V28.0625H50.165V22.8008L50.501 15.0381L45.3643 28.0625H42.9883L37.8545 15.0215L38.1992 22.8008V28.0625H34.7783V11H39.2314L44.1826 23.8438ZM72.4434 28.0625H68.8115L67.4502 24.2656H60.6875L59.333 28.0625H55.7129L62.4795 11H65.6396L72.4434 28.0625ZM61.5947 21.7227H66.5391L64.0605 14.8076L61.5947 21.7227Z" fill="#24AB70"/>
<path d="M21.2451 22.332C21.2451 23.1288 21.3861 23.7813 21.668 24.2891C21.9499 24.789 22.3482 25.1602 22.8623 25.4023C23.3763 25.6445 23.9858 25.7656 24.6904 25.7656C25.4036 25.7656 26.0137 25.6445 26.5195 25.4023C27.0336 25.1602 27.4275 24.789 27.7012 24.2891C27.9748 23.7813 28.1113 23.1289 28.1113 22.332V11H31.5322V22.332C31.5322 23.6367 31.2338 24.7344 30.6367 25.625C30.0397 26.5078 29.2265 27.1758 28.1982 27.6289C27.17 28.0741 26.0005 28.2969 24.6904 28.2969C23.3638 28.2968 22.182 28.0742 21.1455 27.6289C20.1091 27.1758 19.2967 26.5077 18.708 25.625C18.1192 24.7344 17.8242 23.6367 17.8242 22.332V11H21.2451V22.332ZM3.4209 18.043H11.1328V11H14.5537V28.0625H11.1328V20.5742H3.4209V28.0625H0V11H3.4209V18.043ZM44.1826 23.8438L49.1201 11H53.5859V28.0625H50.165V22.8008L50.501 15.0381L45.3643 28.0625H42.9883L37.8545 15.0215L38.1992 22.8008V28.0625H34.7783V11H39.2314L44.1826 23.8438ZM72.4434 28.0625H68.8115L67.4502 24.2656H60.6875L59.333 28.0625H55.7129L62.4795 11H65.6396L72.4434 28.0625ZM61.5947 21.7227H66.5391L64.0605 14.8076L61.5947 21.7227Z" stroke="black"/>
<path d="M85.0683 24.1181C86.4899 22.2229 88.4961 20.7857 90.8144 20.0015C88.501 19.2209 86.4986 17.7886 85.0792 15.8988C83.6597 14.0091 82.8919 11.7536 82.8801 9.43852C82.8801 9.42643 82.8776 9.4167 82.8776 9.40797L82.8801 0.000976562H76.4236V40H82.8801L82.8776 30.593C82.8776 30.5846 82.8801 30.5748 82.8801 30.5624C82.8931 28.2541 83.6568 26.005 85.0683 24.1181Z" fill="#24AB70"/>
<path d="M94.8698 19.2849C97.6444 19.2655 100.3 18.2188 102.262 16.3709C104.225 14.523 105.338 12.0221 105.36 9.40801V0.00369259L98.8945 6.09121V9.40701C98.9105 9.91436 98.8183 10.4196 98.6233 10.8927C98.4283 11.3658 98.1344 11.7973 97.7592 12.1615C97.3839 12.5257 96.9349 12.8152 96.4387 13.013C95.9425 13.2107 95.4093 13.3126 94.8705 13.3126C94.3318 13.3126 93.7985 13.2107 93.3023 13.013C92.8061 12.8152 92.3571 12.5257 91.9818 12.1615C91.6066 11.7973 91.3128 11.3658 91.1178 10.8927C90.9227 10.4196 90.8305 9.91436 90.8465 9.40701V6.08148L84.3982 0V9.40701C84.414 12.02 85.522 14.522 87.482 16.3708C89.442 18.2197 92.0963 19.2667 94.8698 19.2849Z" fill="black"/>
<path d="M94.8698 20.7161C92.0964 20.7342 89.4422 21.781 87.4821 23.6297C85.5221 25.4783 84.414 27.9801 84.3978 30.593V40L90.8462 33.9185V30.593C90.8301 30.0856 90.9224 29.5804 91.1174 29.1073C91.3124 28.6341 91.6062 28.2027 91.9815 27.8385C92.3567 27.4743 92.8058 27.1847 93.3019 26.987C93.7981 26.7893 94.3314 26.6874 94.8701 26.6874C95.4089 26.6874 95.9422 26.7893 96.4384 26.987C96.9345 27.1847 97.3836 27.4743 97.7588 27.8385C98.1341 28.2027 98.4279 28.6341 98.6229 29.1073C98.8179 29.5804 98.9102 30.0856 98.8941 30.593V33.9088L105.36 39.9967V30.593C105.337 27.9789 104.225 25.478 102.262 23.6301C100.299 21.7822 97.6445 20.7356 94.8698 20.7161Z" fill="black"/>
<path d="M113.332 0.00366211H106.879V9.40698C106.871 11.7271 106.105 13.9887 104.685 15.8841C103.264 17.7795 101.259 19.2168 98.9408 20.0005C101.259 20.7838 103.264 22.2208 104.685 24.1161C106.105 26.0114 106.871 28.2729 106.879 30.593V39.9966H113.332V0.00366211Z" fill="#24AB70"/>
</svg>
