<svg width="21" height="24" viewBox="0 0 21 24" fill="none" xmlns="http://www.w3.org/2000/svg">
<path d="M10.055 24.0003C9.21294 24.0046 8.38211 23.8071 7.63207 23.4243C6.88202 23.0416 6.2346 22.4847 5.744 21.8003C1.933 16.5433 0 12.5913 0 10.0533C0 7.38654 1.05936 4.82901 2.94504 2.94333C4.83072 1.05765 7.38825 -0.00170898 10.055 -0.00170898C12.7218 -0.00170898 15.2793 1.05765 17.165 2.94333C19.0506 4.82901 20.11 7.38654 20.11 10.0533C20.11 12.5913 18.177 16.5433 14.366 21.8003C13.8754 22.4847 13.228 23.0416 12.4779 23.4243C11.7279 23.8071 10.8971 24.0046 10.055 24.0003ZM10.055 2.18129C7.96742 2.18367 5.96602 3.01402 4.48987 4.49016C3.01373 5.96631 2.18338 7.96771 2.181 10.0553C2.181 12.0653 4.074 15.7823 7.51 20.5213C7.80169 20.9231 8.18437 21.2501 8.62671 21.4756C9.06906 21.701 9.5585 21.8186 10.055 21.8186C10.5515 21.8186 11.0409 21.701 11.4833 21.4756C11.9256 21.2501 12.3083 20.9231 12.6 20.5213C16.036 15.7823 17.929 12.0653 17.929 10.0553C17.9266 7.96771 17.0963 5.96631 15.6201 4.49016C14.144 3.01402 12.1426 2.18367 10.055 2.18129Z" fill="#F4FBF8"/>
</svg>
